<svg xmlns="http://www.w3.org/2000/svg" viewBox="0 0 769.05 154.1"><g id="Layer_2" data-name="Layer 2"><g id="Layer_1-2" data-name="Layer 1"><path d="M161.52,2.08C81.74-1.53-1.25,46.65,0,82.16c1.25,35,84.6,69.82,159.51,70.92,86.7,1.28,116-43.34,174.23-61.39C279.31,66.84,246.86,6,161.52,2.08Zm61.82,91.6c-11.82,32-96.47,41-145.82,6.4-8.56-6-18.79-13.36-18.59-23,.43-20.72,48.84-41.63,91.59-39,24.28,1.5,65.12,11.73,72.82,38.14C224.11,78.84,226.19,86,223.34,93.68Z"/><path d="M333.75,91.69a113.42,113.42,0,0,0,51.82,10.38,110.63,110.63,0,0,0,46.76-11.51,172.3,172.3,0,0,0-46.76-6.3A169.65,169.65,0,0,0,333.75,91.69Z"/><path d="M588.52,1.08C508,9.69,482.23,65.9,432.33,90.56c61.61,17.37,90.17,64.63,178.19,63.52,74.36-.93,157.19-36,158.52-70.87C770.47,45.28,676.35-8.3,588.52,1.08Zm70,115s-40.79,10.69-87-8a97.14,97.14,0,0,1-12-6c-10.23-6-27.17-15.85-26.9-28.47.09-4.15,1.83-7.14,3.79-10.34,8.26-13.55,24.26-18,40.11-22.19a142.76,142.76,0,0,1,30-5c18.41-1.07,43.45-2.53,66,12,3.15,2,28.39,18.31,26,37a23,23,0,0,1-4,10C685.4,109.13,662.22,115.16,658.52,116.08Z"/></g></g></svg>